<svg width="100" height="70" viewBox="0 0 100 70" fill="none" xmlns="http://www.w3.org/2000/svg">
  <path d="M41.5 7.8c3.2-3.4 7.7-5.4 12.7-5.4 6.6 0 12.3 3.7 15.4 9.1a21.3 21.3 0 0 1 8.7-1.9c11.9 0 21.5 9.7 21.5 21.7s-9.6 21.7-21.5 21.7c-1.5 0-2.9-.1-4.3-.4-2.7 4.8-7.8 8.1-13.7 8.1-2.5 0-4.9-.6-6.9-1.6-2.7 6.4-9.1 10.9-16.5 10.9-7.7 0-14.3-4.9-16.8-11.7a16.5 16.5 0 0 1-3.4.4c-9.2 0-16.7-7.6-16.7-16.8 0-6.2 3.4-11.7 8.3-14.6a19.3 19.3 0 0 1-1.6-7.7C6.7 9.5 15.4 2 26.1 2c6.3 0 11.9 3 15.4 7.6" fill="#00A1E0"/>
</svg>
